<svg xmlns="http://www.w3.org/2000/svg" width="218" height="395" viewBox="0 0 197.562 357.632">
  <style>
<![CDATA[
  .st0{fill:#484356;}
  .st1{fill:#ADACB5;}
  .st2{fill:#484356;}
  .st3{fill:#939198;}
  .st4{fill:#FFFFFF;}
  .st5{fill:#3C3240;}
  .st6{fill:#757380;}

  @keyframes animateShadow {
    from { transform: scale(0.85); opacity: 0.05; }
    to { transform: scale(1.25); opacity: 0.1; }
  }

  #shadow {
    transform-origin: center bottom;
    animation-name: animateShadow;
    animation-duration: 1.5s;
    animation-iteration-count: infinite;
    animation-direction: alternate;
    animation-timing-function: ease-in-out;
  }

  @keyframes animateBody {
    from { transform: translate3d(0, 0, 0) rotate(-0.5deg); }
    to { transform: translate3d(0, 3%, 0) rotate(0.5deg); }
  }

  #body {
    transform-origin: 50% 100%;
    animation-name: animateBody;
    animation-duration: 1.5s;
    animation-iteration-count: infinite;
    animation-direction: alternate;
    animation-timing-function: ease-in-out;
  }

  @keyframes animateUpper {
    from { transform: translate3d(0, 0, 0); }
    to { transform: translate3d(0, 2%, 0); }
  }

  #upper {
    transform-origin: center center;
    animation-name: animateUpper;
    animation-duration: 1.5s;
    animation-delay: 0.3s;
    animation-iteration-count: infinite;
    animation-direction: alternate;
    animation-timing-function: ease-in-out;
  }

  @keyframes animateEyebrows {
    from { transform: translate3d(0, 0, 0); }
    to { transform: translate3d(0, -2%, 0); }
  }

  #eyebrows {
    transform-origin: center center;
    animation-name: animateEyebrows;
    animation-duration: 1.5s;
    animation-delay: 0.3s;
    animation-iteration-count: infinite;
    animation-direction: alternate;
    animation-timing-function: ease-in-out;
  }

  @keyframes animateRobot {
    from { transform: rotate(-0.5deg); }
    to { transform: rotate(0.5deg); }
  }

  #robot {
    transform-origin: center bottom;
    animation-name: animateRobot;
    animation-duration: 2.5s;
    animation-iteration-count: infinite;
    animation-direction: alternate;
    animation-timing-function: ease-out;
  }

  @keyframes animateWheel {
    from { transform: scaleY(1); }
    to { transform: scaleY(0.9); }
  }

  #wheel {
    transform-origin: center bottom;
    animation-name: animateWheel;
    animation-duration: 1.5s;
    animation-delay: 0.3s;
    animation-iteration-count: infinite;
    animation-direction: alternate;
    animation-timing-function: ease-in-out;
  }
]]>
  </style>

  <g id="robot">
    <g id="body">
      <g id="upper">
        <g id="head">
          <path d="M47.294 49.063H34c-.853-2.133-2.934-3.642-5.37-3.642-3.197 0-5.788 2.592-5.788 5.788s2.59 5.787 5.787 5.787c2.437 0 4.518-1.51 5.37-3.642h13.294v-4.29zM168.886 45.42c-2.438 0-4.52 1.51-5.372 3.643H150.22v4.29h13.294c.853 2.133 2.934 3.642 5.372 3.642 3.195 0 5.787-2.59 5.787-5.787 0-3.196-2.592-5.787-5.787-5.787z" class="st6"/>
          <path d="M42.44 65.726l4.197-29.036h9.15l-4.194 29.036z" class="st1"/>
          <path d="M139.134 18.34l9.5 65.737H48.927l9.5-65.737z" class="st1"/>
          <path d="M50.76 83.807H46.8L56.45 18.34h3.958zM44.657 36.69L40.46 65.726h3.96l4.196-29.036z" class="st6"/>
          <path d="M155.073 65.726l-4.195-29.036h-9.152l4.195 29.036z" class="st1"/>
          <path d="M152.856 36.69l4.198 29.036h-3.96l-4.197-29.036zM146.66 83.807h3.958l-9.646-65.467h-3.958z" class="st6"/>
        </g>

        <g id="mouth">
          <path d="M98.78 63.813c-9.61 0-19.25-1.006-28.655-2.99-2.068-.44-3.68-1.52-4.663-3.12-1.06-1.724-1.312-3.934-.708-6.222 1.023-3.777 5.21-5.75 8.818-5.75.598 0 1.183.055 1.74.16 7.718 1.498 15.61 2.257 23.467 2.257 7.854 0 15.747-.76 23.458-2.255.564-.106 1.15-.16 1.747-.16 3.61 0 7.797 1.972 8.817 5.74.605 2.3.354 4.508-.706 6.232-.984 1.6-2.596 2.68-4.66 3.12-9.405 1.983-19.045 2.99-28.656 2.99z" class="st4"/>
          <path d="M134.257 51.1c-1.224-4.516-6.09-6.868-10.27-6.868-.69 0-1.37.062-2.02.185-7.63 1.48-15.428 2.23-23.187 2.23-7.76 0-15.557-.75-23.174-2.228-.663-.126-1.342-.19-2.033-.19-4.18 0-9.046 2.354-10.264 6.85-.715 2.708-.403 5.332.874 7.41 1.204 1.957 3.148 3.27 5.624 3.8 9.512 2.006 19.257 3.023 28.972 3.023s19.46-1.017 28.964-3.02c2.482-.53 4.427-1.845 5.63-3.804 1.278-2.078 1.59-4.702.883-7.39zM97.28 62.293c-5.524-.06-11.046-.446-16.536-1.173l2.527-12.448c4.654.583 9.33.9 14.01.957v12.663zm3-12.665c4.35-.052 8.694-.327 13.02-.834l2.527 12.45c-5.163.645-10.354.993-15.546 1.05V49.627zm-34.075 2.236c.788-2.91 4.23-4.633 7.368-4.633.5 0 .99.044 1.462.134 1.748.34 3.5.634 5.258.898l-2.524 12.43c-2.454-.38-4.9-.822-7.335-1.335-3.847-.822-5.12-4.12-4.23-7.493zm60.92 7.492c-2.76.583-5.536 1.068-8.32 1.48l-2.523-12.427c2.088-.297 4.17-.643 6.244-1.045.472-.09.963-.132 1.46-.132 3.14 0 6.582 1.723 7.37 4.633.89 3.372-.384 6.67-4.23 7.49z" class="st6"/>
        </g>

        <g id="eyes">
          <g>
            <path d="M80.53 36.892c-7.306 0-13.25-5.346-13.25-11.917 0-6.57 5.944-11.917 13.25-11.917s13.25 5.346 13.25 11.917c0 6.57-5.944 11.917-13.25 11.917z" class="st4"/>
            <path d="M80.53 14.56c6.49 0 11.75 4.663 11.75 10.416s-5.26 10.416-11.75 10.416-11.75-4.664-11.75-10.417S74.04 14.56 80.53 14.56m0-3c-8.133 0-14.75 6.018-14.75 13.416s6.617 13.417 14.75 13.417 14.75-6.02 14.75-13.417S88.664 11.56 80.53 11.56z" class="st6"/>
          </g>

          <g>
            <path d="M117.03 36.892c-7.306 0-13.25-5.346-13.25-11.917 0-6.57 5.944-11.917 13.25-11.917s13.25 5.346 13.25 11.917c0 6.57-5.944 11.917-13.25 11.917z" class="st4"/>
            <path d="M117.03 14.56c6.49 0 11.75 4.663 11.75 10.416s-5.26 10.417-11.75 10.417-11.75-4.664-11.75-10.417 5.26-10.417 11.75-10.417m0-3c-8.133 0-14.75 6.018-14.75 13.416s6.617 13.417 14.75 13.417 14.75-6.02 14.75-13.417-6.617-13.417-14.75-13.417z" class="st6"/>
          </g>
        </g>

        <g id="eyebrows">
          <path d="M87.004 3.18c-.13 1.427-1.868 2.197-3.764 2.04-5.318-.45-10.34.666-14.516 2.863-1.494.78-3.243.645-4.137-.45-.89-1.088-.34-2.926 1.477-3.912 4.93-2.67 10.8-4.05 16.98-3.654 2.267.137 4.094 1.693 3.96 3.114zM132.086 7.297c-.876 1.147-2.617 1.368-4.1.647-4.15-2.036-9.06-2.986-14.185-2.434-1.826.193-3.545-.572-3.744-2.014-.202-1.437 1.507-3.04 3.717-3.232 6.02-.542 11.82.643 16.77 3.136 1.827.922 2.412 2.756 1.543 3.897z" class="st0"/>
        </g>
      </g>

      <g id="lower">
        <polygon class="st3" points="178.348,83.807 197.562,232.617 169.929,301.143 27.633,301.143 0,232.617 19.212,83.807"/>
        <polygon class="st6" points="178.35,83.807 173.391,83.807 192.603,232.617 4.959,232.617 24.171,83.808 19.212,83.808
        0,232.617 27.633,301.143 169.929,301.143 197.562,232.617"/>

        <path id="mark" d="M110.602 195.188h-70.08l-.884 7.222h69.505c-4.297 6.31-13.9 10.607-21.912 10.607h-59.5l12.212-99.755h26.716l-1.3 10.608H49.253l-.884 7.22h16.107L63.177 141.7H47.07l-.885 7.222h44.82c7.99.018 14.404 4.31 17.15 10.61H44.886l-.884 7.22h65.913l.602 10.568-67.813.04-.883 7.222 68.548-.024.232 10.632z" class="st4"/>

        <path id="lights" d="M138.585 207.79c.166 2.926-2.562 5.298-6.154 5.298s-6.597-2.368-6.67-5.293c-.07-2.924 2.734-5.3 6.23-5.3 3.497 0 6.428 2.37 6.595 5.296zM153.795 207.786c.255 2.927-2.206 5.302-5.61 5.302-3.403 0-6.395-2.372-6.582-5.298-.188-2.925 2.433-5.3 5.768-5.3 3.336-.002 6.17 2.37 6.425 5.296zM168.937 207.786c.256 2.927-2.205 5.302-5.61 5.302-3.403 0-6.394-2.372-6.58-5.298-.19-2.925 2.432-5.3 5.766-5.3 3.336-.002 6.17 2.37 6.424 5.296z" class="st4"/>
      </g>
    </g>

    <g id="wheel">
      <path d="M120.864 256.905l1.686 44.018H75.01l1.686-44.018z" class="st5"/>
      <path d="M122.55 300.923l-4.443 43.71H79.453l-4.442-43.71z" class="st0"/>
    </g>

    <path id="shadow" d="M169.646 357.632H27.916l12.69-26H156.68z" class="st2"/>
  </g>
</svg>
